<?xml version="1.0" ?><!DOCTYPE svg  PUBLIC '-//W3C//DTD SVG 1.1//EN'  'http://www.w3.org/Graphics/SVG/1.1/DTD/svg11.dtd'><svg enable-background="new 0 0 512 512" height="512px" id="brochure_x5F_print" version="1.1" viewBox="0 0 512 512" width="512px" xml:space="preserve" xmlns="http://www.w3.org/2000/svg" xmlns:xlink="http://www.w3.org/1999/xlink"><g><path d="M303.76,312.185c-0.888,0-1.762-0.296-2.474-0.856c-0.964-0.759-1.526-1.918-1.526-3.144V153.727   c0-1.847,1.266-3.454,3.061-3.888l69.24-16.739c1.193-0.288,2.45-0.014,3.413,0.745c0.964,0.758,1.526,1.917,1.526,3.143v154.458   c0,1.848-1.265,3.454-3.061,3.889L304.7,312.072C304.389,312.148,304.074,312.185,303.76,312.185z M307.76,156.875v146.227   L369,288.297V142.069L307.76,156.875z"/><path d="M292.998,348.104c-2.152,0-4.105-1.467-4.635-3.651c-0.618-2.562,0.956-5.139,3.518-5.759l91.923-22.223   c2.563-0.615,5.14,0.955,5.759,3.517s-0.955,5.139-3.517,5.759l-91.923,22.223C293.746,348.06,293.369,348.104,292.998,348.104z"/><path d="M292.914,370.011c-2.152,0-4.105-1.467-4.634-3.651c-0.618-2.561,0.956-5.139,3.517-5.758l91.922-22.224   c2.563-0.616,5.141,0.956,5.76,3.517s-0.955,5.139-3.518,5.758l-91.922,22.224C293.662,369.967,293.285,370.011,292.914,370.011z"/><path d="M292.914,393.428c-2.152,0-4.105-1.467-4.634-3.65c-0.618-2.563,0.956-5.14,3.517-5.76l91.922-22.223   c2.563-0.616,5.141,0.956,5.76,3.517c0.619,2.562-0.955,5.14-3.518,5.759l-91.922,22.223   C293.662,393.385,293.285,393.428,292.914,393.428z"/><path d="M424.207,47.966c-0.963-0.758-2.221-1.031-3.414-0.745L256,87.062L91.207,47.221c-1.191-0.288-2.45-0.013-3.414,0.745   c-0.964,0.758-1.526,1.917-1.526,3.143v369.713c0,1.848,1.265,3.455,3.06,3.889l165.734,40.067   c0.063,0.015,0.125,0.022,0.188,0.034c0.054,0.01,0.106,0.021,0.16,0.028c0.196,0.029,0.394,0.05,0.591,0.05   c0.282,0,0.561-0.041,0.836-0.1c0.034-0.008,0.069-0.004,0.104-0.013l165.734-40.067c1.795-0.434,3.06-2.041,3.06-3.889V51.109   C425.733,49.883,425.171,48.725,424.207,47.966z M94.267,56.192L252,94.325v361.482L94.267,417.674V56.192z M417.733,417.674   L260,455.808V94.325l157.733-38.133V417.674z"/><path d="M208.24,312.185c-0.313,0-0.629-0.036-0.94-0.112l-69.24-16.738c-1.795-0.435-3.06-2.041-3.06-3.889V136.987   c0-1.226,0.563-2.385,1.526-3.143c0.963-0.758,2.222-1.033,3.414-0.745l69.24,16.739c1.795,0.434,3.06,2.041,3.06,3.888v154.458   c0,1.226-0.563,2.385-1.526,3.144C210.001,311.889,209.128,312.185,208.24,312.185z M143,288.297l61.24,14.805V156.875L143,142.069   V288.297z"/><path d="M217.693,348.104c2.152,0,4.105-1.467,4.634-3.651c0.619-2.562-0.955-5.139-3.517-5.759l-91.923-22.223   c-2.564-0.615-5.14,0.955-5.759,3.517s0.955,5.139,3.517,5.759l91.923,22.223C216.945,348.06,217.322,348.104,217.693,348.104z"/><path d="M217.776,370.011c2.152,0,4.105-1.467,4.634-3.651c0.619-2.561-0.955-5.139-3.517-5.758l-91.922-22.224   c-2.563-0.616-5.14,0.956-5.759,3.517c-0.619,2.561,0.955,5.139,3.517,5.758l91.922,22.224   C217.028,369.967,217.406,370.011,217.776,370.011z"/><path d="M217.776,393.428c2.152,0,4.105-1.467,4.634-3.65c0.619-2.563-0.955-5.14-3.517-5.76l-91.922-22.223   c-2.563-0.616-5.14,0.956-5.759,3.517c-0.619,2.562,0.955,5.14,3.517,5.759l91.922,22.223   C217.028,393.385,217.406,393.428,217.776,393.428z"/></g></svg>